<svg width="192" height="192" viewBox="0 0 192 192" fill="none" xmlns="http://www.w3.org/2000/svg">
  <rect width="192" height="192" fill="#FEE2E2"/>
  <g transform="translate(28.8 28.8) scale(5.6)" stroke="#B91C1C" stroke-width="2" stroke-linecap="round" stroke-linejoin="round">
    <path d="M3 2v1c0 1 2 1 2 2S3 6 3 7s2 1 2 2-2 1-2 2 2 1 2 2"/>
    <path d="M18 6h.01"/>
    <path d="M6 18h.01"/>
    <path d="M20.83 8.83a4 4 0 0 0-5.66-5.66l-12 12a4 4 0 1 0 5.66 5.66Z"/>
    <path d="M18 11.66V22a4 4 0 0 0 4-4V6"/>
  </g>
</svg>
